<svg width="117" height="28" viewBox="0 0 117 28" fill="none" xmlns="http://www.w3.org/2000/svg">
<g opacity="0.3" clip-path="url(#clip0_1654_3082)">
<path d="M27.9057 26.1392H21.4493L19.4742 21.335H8.71395L6.91446 26.1392H0.564453L10.2658 1.87487H17.2159L27.9057 26.1392ZM13.8292 7.67292L10.3014 17.1007H17.7102L13.8292 7.67292ZM51.3587 1.87487H56.5799V26.1392H50.5818V10.983L44.0905 18.5959H43.1736L36.6827 10.983V26.1389H30.6846V1.87487H35.9058L43.6317 10.8759L51.3587 1.87487ZM71.7778 1.87487C80.5619 1.87487 85.0769 7.38866 85.0769 14.0417C85.0769 21.0147 80.7029 26.1392 71.1071 26.1392H61.1581V1.87487H71.7778ZM67.1558 21.692H71.0712C77.1039 21.692 78.9034 17.5641 78.9034 14.0057C78.9034 9.84275 76.6805 6.32151 71.0006 6.32151H67.1557V21.692H67.1558ZM97.0099 7.62816L89.447 0H116.98V27.7664L109.417 20.1391V7.62816H97.0099ZM97.001 9.1567L89.2146 17.0086V28H100.112L107.898 20.1481H97.001V9.1567Z" fill="#202430"/>
</g>
<defs>
<clipPath id="clip0_1654_3082">
<rect width="116.465" height="28" fill="white" transform="translate(0.539307)"/>
</clipPath>
</defs>
</svg>
