<svg width="33" height="32" viewBox="0 0 33 32" fill="none" xmlns="http://www.w3.org/2000/svg">
<circle opacity="0.1" cx="16.5" cy="16" r="16" fill="white"/>
<path d="M22.8343 14.36C23.1212 15.452 23.1212 16.544 22.8343 17.636C22.5473 18.7282 21.9959 19.6823 21.1798 20.4989C20.3638 21.3155 19.4101 21.8675 18.3189 22.1546C17.2276 22.4418 16.1364 22.4418 15.0451 22.1547C13.9537 21.8675 13 21.3156 12.1841 20.4991C11.3681 19.6825 10.8167 18.7282 10.5296 17.6361C10.2427 16.5441 10.2427 15.4522 10.5296 14.36C10.8166 13.268 11.3681 12.3137 12.1841 11.4971C13.0001 10.6805 13.9538 10.1286 15.0451 9.84143C16.1363 9.55423 17.2276 9.55439 18.3188 9.84149C19.4101 10.1287 20.3637 10.6807 21.1797 11.4972C21.9957 12.3138 22.5473 13.2681 22.8343 14.36ZM20.5238 19.8426C21.492 18.8737 22.0172 17.7074 22.0992 16.3439L21.9236 16.3147C21.8533 16.3029 21.7011 16.2971 21.4668 16.297C21.2326 16.297 20.9934 16.3136 20.7494 16.3468C20.5053 16.3801 20.1969 16.4483 19.824 16.552C19.4511 16.6555 19.0792 16.7912 18.7082 16.9593C19.087 18.2369 19.3526 19.4637 19.5048 20.6397C19.8875 20.4052 20.2271 20.1395 20.5238 19.8426ZM16.0555 21.3957C16.9026 21.4934 17.7225 21.3997 18.5151 21.1144C18.355 19.9853 18.0934 18.7702 17.7303 17.4691C16.2311 18.3443 14.8919 19.3718 13.7128 20.5518C14.4273 21.0166 15.2083 21.298 16.0555 21.3957ZM11.7125 18.1986C11.9799 18.8101 12.3558 19.3581 12.84 19.8427C12.8947 19.8974 12.9377 19.9364 12.9689 19.9599C14.3823 18.5454 15.8777 17.4123 17.4551 16.5606C17.338 16.1934 17.2248 15.873 17.1154 15.5994C17.0918 15.6074 17.0579 15.6239 17.0129 15.6493C16.9679 15.6748 16.9358 15.6934 16.9161 15.7052L16.6233 15.8458C16.4202 15.9396 16.1322 16.0402 15.7595 16.1477C15.3865 16.2549 14.9738 16.3517 14.5208 16.4377C14.0678 16.5236 13.5466 16.5587 12.9569 16.543C12.3674 16.5274 11.8014 16.4435 11.2587 16.2911C11.2938 16.9514 11.4452 17.5873 11.7125 18.1986ZM12.84 12.1534C11.9264 13.0677 11.4032 14.1774 11.2704 15.4823L11.2938 15.3299C11.7312 15.4941 12.2212 15.582 12.7639 15.5936C13.3065 15.6053 13.7859 15.5732 14.2017 15.497C14.6174 15.4207 15.0449 15.3133 15.4844 15.1747C15.9235 15.0359 16.2163 14.9346 16.3627 14.8699C16.5091 14.8054 16.6254 14.7537 16.7113 14.7146L16.7289 14.7089L16.7407 14.6971C16.1197 13.3102 15.4209 12.0636 14.6439 10.958C13.9566 11.2392 13.3555 11.6377 12.84 12.1534ZM17.8388 10.6852C17.1027 10.527 16.3715 10.5182 15.6455 10.6588C16.3833 11.7177 17.0492 12.884 17.6425 14.1577C18.5406 13.5014 19.2823 12.6457 19.8681 11.5909C19.2512 11.1455 18.5746 10.8435 17.8388 10.6852ZM20.518 12.2648C20.4867 12.3116 20.4467 12.3694 20.3978 12.4377C20.349 12.506 20.2895 12.5891 20.2192 12.6868C20.149 12.7844 20.0678 12.891 19.9761 13.0062C19.8844 13.1215 19.7848 13.2425 19.6773 13.3696C19.57 13.4966 19.4528 13.6294 19.326 13.7681C19.199 13.9069 19.0673 14.0446 18.9306 14.1813C18.7941 14.318 18.6465 14.4577 18.4885 14.6003C18.3306 14.743 18.1713 14.8746 18.0113 14.9958C18.0191 15.0271 18.0367 15.074 18.064 15.1365C18.0914 15.199 18.1128 15.246 18.1286 15.277C18.2183 15.5155 18.3179 15.7871 18.4271 16.0919C18.8059 15.9317 19.1885 15.8007 19.5752 15.699C19.9617 15.5976 20.2836 15.5292 20.5414 15.494C20.7992 15.4589 21.0559 15.4384 21.3116 15.4325C21.5674 15.4266 21.739 15.4286 21.827 15.4383C21.915 15.4481 21.9998 15.4588 22.0817 15.4705L22.0935 15.4706C21.9686 14.2047 21.4592 13.1126 20.5649 12.1945L20.518 12.2648Z" fill="white"/>
</svg>
