<svg width="40" height="40" viewBox="0 0 40 40" fill="none" xmlns="http://www.w3.org/2000/svg">
<path fill-rule="evenodd" clip-rule="evenodd" d="M20.0001 8.33333C19.116 8.33333 18.2682 8.68452 17.6431 9.30964C17.0179 9.93477 16.6667 10.7826 16.6667 11.6667C16.6667 12.5507 17.0179 13.3986 17.6431 14.0237C18.2682 14.6488 19.116 15 20.0001 15C20.8841 15 21.732 14.6488 22.3571 14.0237C22.9822 13.3986 23.3334 12.5507 23.3334 11.6667C23.3334 10.7826 22.9822 9.93477 22.3571 9.30964C21.732 8.68452 20.8841 8.33333 20.0001 8.33333ZM15.286 6.95262C16.5363 5.70238 18.232 5 20.0001 5C21.7682 5 23.4639 5.70238 24.7141 6.95262C25.9644 8.20286 26.6667 9.89856 26.6667 11.6667C26.6667 13.4348 25.9644 15.1305 24.7141 16.3807C23.4639 17.631 21.7682 18.3333 20.0001 18.3333C18.232 18.3333 16.5363 17.631 15.286 16.3807C14.0358 15.1305 13.3334 13.4348 13.3334 11.6667C13.3334 9.89856 14.0358 8.20286 15.286 6.95262ZM8.33342 15C7.89139 15 7.46746 15.1756 7.1549 15.4882C6.84234 15.8007 6.66675 16.2246 6.66675 16.6667C6.66675 17.1087 6.84234 17.5326 7.1549 17.8452C7.46746 18.1577 7.89139 18.3333 8.33342 18.3333C8.77544 18.3333 9.19936 18.1577 9.51193 17.8452C9.82449 17.5326 10.0001 17.1087 10.0001 16.6667C10.0001 16.2246 9.82449 15.8007 9.51193 15.4882C9.19936 15.1756 8.77544 15 8.33342 15ZM4.79788 13.1311C5.73556 12.1935 7.00733 11.6667 8.33342 11.6667C9.6595 11.6667 10.9313 12.1935 11.8689 13.1311C12.8066 14.0688 13.3334 15.3406 13.3334 16.6667C13.3334 17.9928 12.8066 19.2645 11.8689 20.2022C10.9313 21.1399 9.6595 21.6667 8.33342 21.6667C7.00733 21.6667 5.73556 21.1399 4.79788 20.2022C3.8602 19.2645 3.33341 17.9928 3.33341 16.6667C3.33341 15.3406 3.8602 14.0688 4.79788 13.1311ZM31.6667 15C31.2247 15 30.8008 15.1756 30.4882 15.4882C30.1757 15.8007 30.0001 16.2246 30.0001 16.6667C30.0001 17.1087 30.1757 17.5326 30.4882 17.8452C30.8008 18.1577 31.2247 18.3333 31.6667 18.3333C32.1088 18.3333 32.5327 18.1577 32.8453 17.8452C33.1578 17.5326 33.3334 17.1087 33.3334 16.6667C33.3334 16.2246 33.1578 15.8007 32.8453 15.4882C32.5327 15.1756 32.1088 15 31.6667 15ZM28.1312 13.1311C29.0689 12.1935 30.3407 11.6667 31.6667 11.6667C32.9928 11.6667 34.2646 12.1935 35.2023 13.1311C36.14 14.0688 36.6667 15.3406 36.6667 16.6667C36.6667 17.9928 36.14 19.2645 35.2023 20.2022C34.2646 21.1399 32.9928 21.6667 31.6667 21.6667C30.3407 21.6667 29.0689 21.1399 28.1312 20.2022C27.1935 19.2645 26.6667 17.9928 26.6667 16.6667C26.6667 15.3406 27.1935 14.0688 28.1312 13.1311ZM20.0001 23.3322C18.6672 23.3322 17.3648 23.7315 16.261 24.4787C15.2205 25.1831 14.4015 26.1661 13.8962 27.3131L13.4943 31.6667H26.5058L26.104 27.3131C25.5987 26.1661 24.7796 25.1831 23.7391 24.4787C22.6353 23.7315 21.333 23.3322 20.0001 23.3322ZM30.0001 31.6667H35.0001V30.0001C35.0001 30.0001 35.0001 30.0002 35.0001 30.0001C35 29.3074 34.7841 28.6318 34.3825 28.0675C33.9808 27.5031 33.4132 27.0779 32.7587 26.851C32.1042 26.624 31.3952 26.6067 30.7304 26.8013C30.3358 26.9168 29.9683 27.1035 29.6452 27.35C29.877 28.1958 30.0001 29.085 30.0001 30V31.6667ZM28.2164 24.2961C27.5167 23.2887 26.634 22.4131 25.6077 21.7184C23.9523 20.5978 21.9991 19.9988 20.0001 19.9988C18.0011 19.9988 16.0479 20.5978 14.3925 21.7184C13.3661 22.4131 12.4834 23.2887 11.7838 24.2961C11.293 23.9992 10.7631 23.7652 10.2062 23.6021C8.87647 23.2129 7.45856 23.2477 6.14953 23.7016C4.84049 24.1554 3.70539 25.0058 2.902 26.1346C2.09861 27.2634 1.66685 28.6144 1.66675 29.9999V33.3333C1.66675 34.2538 2.41294 35 3.33341 35H36.6667C37.5872 35 38.3334 34.2538 38.3334 33.3333V30C38.3333 28.6145 37.9016 27.2634 37.0982 26.1346C36.2948 25.0058 35.1597 24.1554 33.8506 23.7016C32.5416 23.2477 31.1237 23.2129 29.794 23.6021C29.237 23.7652 28.7072 23.9992 28.2164 24.2961ZM10.355 27.35C10.0318 27.1035 9.6644 26.9168 9.26979 26.8013C8.60495 26.6067 7.89599 26.624 7.24147 26.851C6.58696 27.0779 6.0194 27.5031 5.61771 28.0675C5.21603 28.6318 5.00016 29.3073 5.00008 30C5.00008 30 5.00008 30 5.00008 30V31.6667H10.0001V30C10.0001 29.085 10.1231 28.1958 10.355 27.35Z" fill="#4640DE"/>
</svg>
