<svg width="33" height="32" viewBox="0 0 33 32" fill="none" xmlns="http://www.w3.org/2000/svg">
<circle opacity="0.1" cx="16.5" cy="16" r="16" fill="white"/>
<path fill-rule="evenodd" clip-rule="evenodd" d="M14.2442 10.0736C13.2682 10.1177 12.4222 10.3565 11.739 11.0372C11.0535 11.7215 10.8179 12.5714 10.7737 13.538C10.7463 14.1413 10.5858 18.699 11.0512 19.8942C11.365 20.7006 11.983 21.3206 12.7962 21.6356C13.1757 21.7833 13.6088 21.8833 14.2442 21.9125C19.557 22.1531 21.5264 22.0221 22.3569 19.8942C22.5043 19.5154 22.6057 19.0824 22.6337 18.4481C22.8766 13.118 22.5944 11.9627 21.6684 11.0372C20.934 10.3041 20.0701 9.80505 14.2442 10.0736ZM14.2931 20.8405C13.7114 20.8143 13.3958 20.7173 13.1852 20.6357C12.6554 20.4297 12.2575 20.0331 12.0529 19.506C11.6985 18.5978 11.816 14.2843 11.8476 13.5863C11.8787 12.9026 12.0171 12.2778 12.4991 11.7954C13.0957 11.1999 13.8665 10.908 19.1149 11.145C19.7998 11.176 20.4257 11.3142 20.9089 11.7954C21.5056 12.3909 21.8015 13.1682 21.5604 18.4001C21.5342 18.9807 21.4369 19.2958 21.3552 19.506C20.8153 20.8907 19.5731 21.0829 14.2931 20.8405ZM19.1728 12.8138C19.1728 13.208 19.4932 13.5286 19.8887 13.5286C20.2843 13.5286 20.6053 13.208 20.6053 12.8138C20.6053 12.4195 20.2843 12.0992 19.8887 12.0992C19.4932 12.0992 19.1728 12.4195 19.1728 12.8138ZM13.6404 15.9928C13.6404 17.6817 15.012 19.051 16.704 19.051C18.396 19.051 19.7676 17.6817 19.7676 15.9928C19.7676 14.3038 18.396 12.9353 16.704 12.9353C15.012 12.9353 13.6404 14.3038 13.6404 15.9928ZM14.7155 15.9928C14.7155 14.897 15.6057 14.0079 16.704 14.0079C17.8024 14.0079 18.6925 14.897 18.6925 15.9928C18.6925 17.0892 17.8024 17.9785 16.704 17.9785C15.6057 17.9785 14.7155 17.0892 14.7155 15.9928Z" fill="white"/>
</svg>
