<svg width="83" height="32" viewBox="0 0 83 32" fill="none" xmlns="http://www.w3.org/2000/svg">
<g opacity="0.3" clip-path="url(#clip0_1654_3078)">
<path d="M0.539307 0.446289H6.47955V6.41618H0.539307V0.446289Z" fill="#202430"/>
<path d="M6.33182 31.5512V10.0297H0.6875V31.5299H6.33191L6.33182 31.5512ZM43.707 31.7636V26.4948C42.8825 26.4948 42.1849 26.4523 41.6776 26.3674C41.0856 26.2824 40.6417 26.0699 40.3457 25.7725C40.0497 25.4751 39.8595 25.0501 39.7538 24.4765C39.6693 23.9453 39.627 23.2443 39.627 22.3945V14.8949H43.707V10.0297H39.6269V1.65911H33.9825V22.4583C33.9825 24.2216 34.1306 25.7087 34.4265 26.8985C34.7225 28.067 35.2299 29.023 35.9274 29.7453C36.625 30.4677 37.5552 30.9775 38.6756 31.2963C39.8172 31.6149 41.2547 31.7636 42.967 31.7636H43.707ZM76.0086 31.5512V0.00195312H70.3642V31.5512H76.0086ZM28.5498 12.1543C26.9855 10.4546 24.7869 9.60483 21.9965 9.60483C20.6436 9.60483 19.3963 9.88103 18.297 10.4334C17.1767 10.9858 16.2465 11.7506 15.4855 12.7278L15.1895 13.1315V10.0297H9.62976V31.5299H15.2317V20.0787V20.4824C15.2952 18.4641 15.7814 16.9769 16.7115 16.0209C17.7052 15.0011 18.91 14.4913 20.2842 14.4913C21.912 14.4913 23.1592 15.0011 23.9837 15.9784C24.7869 16.9557 25.2097 18.3366 25.2097 20.1V31.5299H30.8963V19.3351C30.9175 16.2758 30.1142 13.8539 28.5498 12.1543ZM67.4468 20.7585C67.4468 19.2077 67.1721 17.763 66.6436 16.4033C66.0939 15.0648 65.3328 13.8751 64.3816 12.8553C63.4092 11.8356 62.2465 11.0495 60.8936 10.4759C59.5406 9.90223 58.0397 9.62603 56.4119 9.62603C54.8687 9.62603 53.41 9.92351 52.0571 10.4971C50.7042 11.092 49.5203 11.8781 48.5268 12.8766C47.5332 13.8751 46.7299 15.0649 46.1591 16.4246C45.5672 17.7843 45.2923 19.2502 45.2923 20.8011C45.2923 22.352 45.5673 23.8179 46.1168 25.1776C46.6664 26.5373 47.4487 27.727 48.4211 28.7256C49.3935 29.7241 50.5985 30.5314 51.9937 31.105C53.3889 31.6999 54.9321 31.9974 56.5811 31.9974C61.3586 31.9974 64.3181 29.8091 66.0939 27.7695L62.0351 24.6677C61.1895 25.6875 59.1601 27.0685 56.6233 27.0685C55.0378 27.0685 53.7272 26.7072 52.7336 25.9637C51.74 25.2413 51.0635 24.2216 50.7041 22.9681L50.6407 22.7769H67.4468V20.7585ZM50.683 18.7828C50.683 17.2106 52.4799 14.47 56.3485 14.4488C60.217 14.4488 62.0351 17.1894 62.0351 18.7615L50.683 18.7828ZM82.4351 28.8318C82.3294 28.5769 82.1815 28.3644 81.9912 28.1732C81.8009 27.982 81.5895 27.8333 81.3359 27.727C81.0822 27.6208 80.8074 27.5571 80.5325 27.5571C80.2366 27.5571 79.9829 27.6208 79.7293 27.727C79.4755 27.8333 79.2641 27.982 79.0739 28.1732C78.8837 28.3644 78.7356 28.5769 78.63 28.8318C78.5243 29.0867 78.4609 29.3629 78.4609 29.6391C78.4609 29.9365 78.5243 30.1914 78.63 30.4465C78.7356 30.7013 78.8837 30.9138 79.0739 31.105C79.2641 31.2963 79.4755 31.445 79.7293 31.5512C79.9829 31.6574 80.2578 31.7211 80.5325 31.7211C80.8285 31.7211 81.0822 31.6574 81.3359 31.5512C81.5895 31.445 81.8009 31.2963 81.9912 31.105C82.1815 30.9138 82.3294 30.7014 82.4352 30.4465C82.541 30.1915 82.6043 29.9153 82.6043 29.639C82.6043 29.3627 82.5408 29.0867 82.4352 28.8318H82.4351ZM82.0969 30.319C82.0124 30.5314 81.8855 30.7226 81.7375 30.8714C81.5895 31.0201 81.3993 31.1475 81.1879 31.2325C80.9765 31.3175 80.7651 31.3599 80.5114 31.3599C80.2789 31.3599 80.0463 31.3175 79.835 31.2325C79.6237 31.1476 79.4333 31.0201 79.2853 30.8713C79.1374 30.7226 79.0105 30.5314 78.9259 30.319C78.8413 30.1065 78.7991 29.894 78.7991 29.6391C78.7991 29.4054 78.8413 29.1717 78.926 28.9593C79.0105 28.7468 79.1374 28.5556 79.2853 28.4069C79.4333 28.2582 79.6236 28.1307 79.835 28.0456C80.0463 27.9607 80.2577 27.9182 80.5114 27.9182C80.7439 27.9182 80.9765 27.9608 81.1879 28.0457C81.3993 28.1307 81.5895 28.2582 81.7375 28.407C81.8855 28.5556 82.0124 28.7467 82.0969 28.9593C82.1815 29.1718 82.2237 29.3842 82.2237 29.6391C82.2237 29.894 82.1815 30.1065 82.0969 30.319ZM80.9131 29.8303C81.0821 29.8091 81.209 29.7453 81.3147 29.6391C81.4204 29.5329 81.4838 29.3842 81.4838 29.1717C81.4838 28.938 81.4204 28.768 81.2724 28.6406C81.1456 28.5131 80.9131 28.4493 80.6382 28.4493H79.7081V30.8501H80.1521V29.8728H80.4691L81.061 30.8501H81.5261L80.9131 29.8303ZM80.6805 29.4691H80.1519V28.7893H80.6804C80.7439 28.7893 80.8073 28.8105 80.8707 28.8318C80.9342 28.8531 80.9764 28.8955 80.9975 28.938C81.0399 28.9805 81.0399 29.0442 81.0399 29.1292C81.0399 29.2141 81.0187 29.278 80.9975 29.3204C80.9553 29.3629 80.913 29.4054 80.8707 29.4267C80.8073 29.4479 80.7439 29.4691 80.6804 29.4691H80.6805Z" fill="#202430"/>
</g>
<defs>
<clipPath id="clip0_1654_3078">
<rect width="82.0647" height="32" fill="white" transform="translate(0.539307)"/>
</clipPath>
</defs>
</svg>
