<svg width="33" height="32" viewBox="0 0 33 32" fill="none" xmlns="http://www.w3.org/2000/svg">
<circle opacity="0.1" cx="16.5" cy="16" r="16" fill="white"/>
<path fill-rule="evenodd" clip-rule="evenodd" d="M21.6394 21H19.6408V17.5005C19.6408 16.5405 19.2176 16.0049 18.4587 16.0049C17.6327 16.0049 17.1426 16.563 17.1426 17.5005V21H15.144V14.5H17.1426V15.231C17.1426 15.231 17.7696 14.1299 19.1826 14.1299C20.5961 14.1299 21.6394 14.9931 21.6394 16.7791V21ZM12.8666 13.4604C12.1926 13.4604 11.6465 12.9095 11.6465 12.23C11.6465 11.551 12.1926 11 12.8666 11C13.5401 11 14.0863 11.551 14.0863 12.23C14.0868 12.9095 13.5401 13.4604 12.8666 13.4604ZM11.6465 21H14.1447V14.5H11.6465V21Z" fill="white"/>
</svg>
