<svg width="18" height="10" viewBox="0 0 18 10" fill="none" xmlns="http://www.w3.org/2000/svg">
<path d="M9.83342 8.33333H1.50008C1.27907 8.33333 1.06711 8.42113 0.910826 8.57741C0.754545 8.73369 0.666748 8.94565 0.666748 9.16667C0.666748 9.38768 0.754545 9.59964 0.910826 9.75592C1.06711 9.9122 1.27907 10 1.50008 10H9.83342C10.0544 10 10.2664 9.9122 10.4227 9.75592C10.579 9.59964 10.6667 9.38768 10.6667 9.16667C10.6667 8.94565 10.579 8.73369 10.4227 8.57741C10.2664 8.42113 10.0544 8.33333 9.83342 8.33333ZM1.50008 1.66667H16.5001C16.7211 1.66667 16.9331 1.57887 17.0893 1.42259C17.2456 1.26631 17.3334 1.05435 17.3334 0.833333C17.3334 0.61232 17.2456 0.400358 17.0893 0.244078C16.9331 0.0877975 16.7211 0 16.5001 0H1.50008C1.27907 0 1.06711 0.0877975 0.910826 0.244078C0.754545 0.400358 0.666748 0.61232 0.666748 0.833333C0.666748 1.05435 0.754545 1.26631 0.910826 1.42259C1.06711 1.57887 1.27907 1.66667 1.50008 1.66667ZM16.5001 4.16667H1.50008C1.27907 4.16667 1.06711 4.25446 0.910826 4.41074C0.754545 4.56702 0.666748 4.77899 0.666748 5C0.666748 5.22101 0.754545 5.43297 0.910826 5.58926C1.06711 5.74554 1.27907 5.83333 1.50008 5.83333H16.5001C16.7211 5.83333 16.9331 5.74554 17.0893 5.58926C17.2456 5.43297 17.3334 5.22101 17.3334 5C17.3334 4.77899 17.2456 4.56702 17.0893 4.41074C16.9331 4.25446 16.7211 4.16667 16.5001 4.16667Z" fill="#25324B"/>
</svg>
