<svg width="40" height="40" viewBox="0 0 40 40" fill="none" xmlns="http://www.w3.org/2000/svg">
<path d="M18.3332 9.80333V32.0667C18.3327 32.7574 18.0884 33.4259 17.6434 33.9542C17.1984 34.4826 16.5813 34.8369 15.9006 34.9549C15.22 35.0728 14.5195 34.9467 13.9227 34.5989C13.3259 34.251 12.871 33.7037 12.6382 33.0533L9.05986 22.8033M29.9999 21.6667C31.3259 21.6667 32.5977 21.1399 33.5354 20.2022C34.4731 19.2645 34.9999 17.9927 34.9999 16.6667C34.9999 15.3406 34.4731 14.0688 33.5354 13.1311C32.5977 12.1935 31.3259 11.6667 29.9999 11.6667V21.6667ZM9.05986 22.805C7.64523 22.2035 6.48184 21.1318 5.76658 19.7711C5.05132 18.4105 4.82812 16.8445 5.13476 15.3382C5.44139 13.8319 6.25902 12.4778 7.44928 11.505C8.63954 10.5322 10.1293 10.0006 11.6665 10H14.7199C21.5532 10 27.4282 7.94333 29.9999 5V28.3333C27.4282 25.39 21.5549 23.3333 14.7199 23.3333H11.6665C10.7709 23.3346 9.88428 23.1549 9.05986 22.805Z" stroke="#4640DE" stroke-width="3" stroke-linecap="round" stroke-linejoin="round"/>
</svg>
