<svg width="33" height="32" viewBox="0 0 33 32" fill="none" xmlns="http://www.w3.org/2000/svg">
<circle opacity="0.1" cx="16.5" cy="16" r="16" fill="white"/>
<path fill-rule="evenodd" clip-rule="evenodd" d="M14.3798 21C18.9049 21 21.3799 17.1522 21.3799 13.8158C21.3799 13.7062 21.3799 13.5975 21.3727 13.4892C21.8542 13.1323 22.2697 12.6892 22.6001 12.1821C22.1516 12.3864 21.6749 12.5204 21.1875 12.5795C21.7007 12.2638 22.0851 11.7679 22.2691 11.1827C21.7859 11.4768 21.2576 11.6844 20.7066 11.7958C19.7749 10.7792 18.2165 10.73 17.2254 11.6862C16.5869 12.3028 16.3152 13.2221 16.5137 14.099C14.5357 13.9968 12.6926 13.0381 11.443 11.461C10.7901 12.6148 11.124 14.0902 12.2051 14.8311C11.8136 14.8194 11.4304 14.7112 11.0881 14.5155V14.5476C11.0887 15.7494 11.9143 16.7842 13.0619 17.0223C12.6998 17.1238 12.3196 17.1385 11.9515 17.0653C12.2734 18.0942 13.1974 18.7989 14.2497 18.8192C13.3785 19.5219 12.3022 19.9035 11.1942 19.9023C10.9987 19.9016 10.8033 19.8899 10.6084 19.866C11.7338 20.6068 13.0427 21 14.3798 20.9982" fill="white"/>
</svg>
